<?xml version="1.0" standalone="no"?>
<!DOCTYPE svg PUBLIC "-//W3C//DTD SVG 20010904//EN"
 "http://www.w3.org/TR/2001/REC-SVG-20010904/DTD/svg10.dtd">
<svg version="1.0" xmlns="http://www.w3.org/2000/svg"
 width="821.000000pt" height="461.000000pt" viewBox="0 0 821.000000 461.000000"
 preserveAspectRatio="xMidYMid meet">

<g transform="translate(0.000000,461.000000) scale(0.100000,-0.100000)"
fill="white" stroke="none">
<path d="M3670 2563 c0 -998 4 -1520 11 -1563 31 -194 139 -353 293 -432 89
-46 540 -228 547 -221 4 6 151 354 235 558 2 6 -111 57 -251 115 l-255 105 0
1468 0 1467 -290 0 -290 0 0 -1497z"/>
<path d="M1735 3364 c-363 -55 -630 -183 -879 -423 -177 -172 -304 -373 -381
-605 -44 -131 -64 -233 -74 -370 -22 -298 43 -591 188 -853 25 -46 49 -83 53
-83 8 0 2738 1167 2745 1173 9 9 -75 243 -117 328 -209 416 -592 710 -1055
811 -88 19 -403 33 -480 22z m302 -625 c102 -14 223 -56 319 -110 81 -46 241
-187 227 -200 -4 -4 -114 -52 -243 -107 -129 -55 -469 -200 -755 -322 -286
-122 -531 -226 -544 -231 l-24 -10 6 128 c6 147 27 235 87 358 166 346 543
547 927 494z"/>
<path d="M6137 3354 c-98 -15 -247 -53 -247 -62 0 -4 43 -137 97 -297 l96
-291 71 20 c104 28 322 27 431 -3 102 -27 242 -95 322 -155 139 -105 258 -273
310 -437 23 -73 31 -89 48 -88 11 0 146 26 300 58 l280 58 -2 37 c-7 110 -144
416 -250 557 -119 159 -299 320 -459 413 -167 97 -381 171 -567 195 -106 15
-322 12 -430 -5z"/>
<path d="M5281 2915 c-272 -287 -418 -635 -427 -1020 -9 -418 131 -783 420
-1091 43 -47 82 -84 86 -82 10 4 410 455 410 462 0 3 -23 29 -51 58 -108 113
-192 273 -226 433 -8 38 -15 120 -15 180 0 61 7 142 15 180 35 162 121 326
226 430 28 28 51 53 51 58 0 8 -398 460 -410 465 -4 1 -39 -32 -79 -73z"/>
<path d="M7235 1638 c-16 -74 -71 -196 -126 -278 -126 -188 -324 -325 -545
-376 -108 -26 -311 -24 -410 3 l-71 19 -96 -291 c-54 -160 -97 -293 -97 -297
0 -9 145 -46 255 -64 132 -21 399 -14 530 14 192 42 387 125 547 233 121 82
325 285 400 399 100 151 199 379 223 512 6 33 5 38 -16 43 -66 15 -562 115
-574 115 -7 0 -17 -15 -20 -32z"/>
<path d="M2480 1169 c-100 -91 -265 -168 -415 -194 -197 -34 -372 -7 -555 85
l-75 37 -160 -255 c-88 -140 -161 -260 -163 -266 -3 -14 141 -92 250 -135 442
-175 974 -121 1373 139 91 60 237 179 233 190 -6 15 -426 440 -434 440 -5 -1
-29 -19 -54 -41z"/>
</g>
</svg>
