<svg width="600" height="600" viewBox="0 0 600 600" fill="none" xmlns="http://www.w3.org/2000/svg">
<path d="M468 100.001H134.25C129.948 99.7992 125.649 100.448 121.598 101.91C117.547 103.372 113.825 105.619 110.643 108.522C107.462 111.424 104.884 114.926 103.058 118.826C101.232 122.726 100.192 126.948 100 131.251V465.751C100.252 474.754 103.941 483.321 110.311 489.689C116.68 496.059 125.246 499.749 134.25 500.001H468C476.752 499.611 485.005 495.806 490.987 489.404C496.97 483.001 500.205 474.511 500 465.751V131.251C500.072 127.063 499.287 122.905 497.695 119.032C496.102 115.159 493.735 111.651 490.737 108.725C487.742 105.799 484.18 103.516 480.27 102.016C476.36 100.516 472.185 99.83 468 100.001ZM225 433.501H166.75V255.251H225V433.501ZM197.25 228.251C193.185 228.392 189.135 227.692 185.354 226.193C181.573 224.695 178.142 222.431 175.278 219.543C172.414 216.655 170.178 213.206 168.71 209.413C167.243 205.62 166.575 201.564 166.75 197.501C166.57 193.393 167.251 189.294 168.749 185.465C170.246 181.636 172.528 178.162 175.447 175.267C178.366 172.372 181.857 170.118 185.698 168.652C189.539 167.185 193.644 166.538 197.75 166.751C201.815 166.609 205.865 167.309 209.646 168.808C213.427 170.306 216.858 172.571 219.722 175.458C222.586 178.346 224.822 181.795 226.29 185.588C227.757 189.381 228.425 193.437 228.25 197.501C228.43 201.608 227.749 205.708 226.251 209.536C224.753 213.365 222.472 216.839 219.553 219.734C216.634 222.63 213.142 224.883 209.302 226.349C205.461 227.816 201.356 228.464 197.25 228.251ZM433.5 433.501H375V336.001C375 312.751 366.75 296.751 346 296.751C339.555 296.806 333.282 298.854 328.047 302.614C322.81 306.374 318.865 311.661 316.75 317.751C315.125 322.316 314.445 327.164 314.75 332.001V433.501H257.25V255.251H314.75V280.251C319.862 270.859 327.47 263.064 336.735 257.724C346 252.386 356.56 249.713 367.25 250.001C405 250.001 433.5 275.001 433.5 328.251V433.501Z" fill="black"/>
</svg>
